<svg xmlns="http://www.w3.org/2000/svg" width="62" height="62" viewBox="0 0 62 62"><path d="M57.772,53.342A4.233,4.233,0,0,0,62,49.114V6.055A6.062,6.062,0,0,0,55.945,0H6.055A6.062,6.062,0,0,0,0,6.055V49.114a4.233,4.233,0,0,0,4.228,4.228H5.57v6.236H1.211a1.211,1.211,0,0,0,0,2.422H60.789a1.211,1.211,0,0,0,0-2.422H56.43V53.342ZM2.422,6.055A3.637,3.637,0,0,1,6.055,2.422H55.945a3.637,3.637,0,0,1,3.633,3.633V8.719H2.543c-.041,0-.082,0-.122.006Zm10.9,53.523H7.992V48.68H13.32Zm13.563,0H21.555V35.291h5.328Zm13.563,0H35.117V45.531h5.328ZM55.219,31.061h-7.75a1.211,1.211,0,0,0-1.211,1.211v6.115a1.211,1.211,0,0,0,2.422,0v-4.9h5.328v26.1H48.68V46.53a1.211,1.211,0,0,0-2.422,0V59.578H42.867V44.32a1.211,1.211,0,0,0-1.211-1.211h-7.75A1.211,1.211,0,0,0,32.7,44.32V59.578H29.3V34.08a1.211,1.211,0,0,0-1.211-1.211h-7.75a1.211,1.211,0,0,0-1.211,1.211v25.5H15.742V47.469a1.211,1.211,0,0,0-1.211-1.211H6.781A1.211,1.211,0,0,0,5.57,47.469V50.92H4.228a1.808,1.808,0,0,1-1.806-1.806V11.134c.04,0,.081.006.122.006H59.578V49.114a1.808,1.808,0,0,1-1.806,1.806H56.43V32.271A1.211,1.211,0,0,0,55.219,31.061Z" fill="#e63d21"/><g transform="translate(25.68 4.359)"><path d="M240.635,36H213.276a1.211,1.211,0,0,0,0,2.422h27.359a1.211,1.211,0,0,0,0-2.422Z" transform="translate(-212.065 -36)" fill="#e63d21"/></g><g transform="translate(11.383 4.359)"><path d="M96.067,36.355a1.21,1.21,0,1,0,.355.856A1.22,1.22,0,0,0,96.067,36.355Z" transform="translate(-94 -36)" fill="#e63d21"/></g><g transform="translate(6.539 4.359)"><path d="M56.067,36.355a1.21,1.21,0,1,0,.355.856A1.22,1.22,0,0,0,56.067,36.355Z" transform="translate(-54 -36)" fill="#e63d21"/></g><g transform="translate(16.227 4.359)"><path d="M136.067,36.355a1.21,1.21,0,1,0,.355.856A1.218,1.218,0,0,0,136.067,36.355Z" transform="translate(-134 -36)" fill="#e63d21"/></g><g transform="translate(46.258 41.492)"><path d="M384.067,342.995a1.21,1.21,0,1,0,.355.856A1.215,1.215,0,0,0,384.067,342.995Z" transform="translate(-382 -342.64)" fill="#e63d21"/></g><g transform="translate(6.216 16.461)"><path d="M96.463,135.939a4.356,4.356,0,0,0-3.527,6.917L84.892,150.9a4.349,4.349,0,0,0-4.02-.1l-8.4-8.4a4.36,4.36,0,1,0-7.523.187L57.8,149.741a4.363,4.363,0,1,0,1.713,1.712l7.236-7.236a4.349,4.349,0,0,0,4.012-.1l8.317,8.317a4.359,4.359,0,1,0,7.528.18l8.259-8.259a4.359,4.359,0,1,0,1.6-8.413ZM55.7,155.495a1.938,1.938,0,1,1,1.938-1.937A1.94,1.94,0,0,1,55.7,155.495Zm12.961-13.259a1.938,1.938,0,1,1,1.938-1.937A1.94,1.94,0,0,1,68.657,142.236Zm14.132,14.417a1.938,1.938,0,1,1,1.938-1.937A1.94,1.94,0,0,1,82.788,156.653Zm13.675-14.417A1.938,1.938,0,1,1,98.4,140.3,1.94,1.94,0,0,1,96.463,142.236Z" transform="translate(-51.336 -135.939)" fill="#e63d21"/></g><g transform="translate(15.895 15.26)"><path d="M133.327,126.375a1.21,1.21,0,1,0,.355.856A1.222,1.222,0,0,0,133.327,126.375Z" transform="translate(-131.26 -126.02)" fill="#e63d21"/></g><g transform="translate(5.57 15.26)"><path d="M53.023,126.021H47.211a1.211,1.211,0,0,0,0,2.422h5.813a1.211,1.211,0,0,0,0-2.422Z" transform="translate(-46 -126.021)" fill="#e63d21"/></g><g transform="translate(5.57 21.073)"><path d="M53.023,174.021H47.211a1.211,1.211,0,0,0,0,2.422h5.813a1.211,1.211,0,0,0,0-2.422Z" transform="translate(-46 -174.021)" fill="#e63d21"/></g></svg>