<svg xmlns="http://www.w3.org/2000/svg" width="62" height="61.175" viewBox="0 0 62 61.175"><g transform="translate(0.001 -0.5)"><path d="M61.747,113.579,51.37,100.1a1.216,1.216,0,0,0-1.616-.284l-6.7,4.261H34.316a1.2,1.2,0,0,0-.334.056l-6.775,1.95-7.03-1.923-6.831-4.344a1.215,1.215,0,0,0-1.6.262L.269,114.294a1.215,1.215,0,0,0,.153,1.685l6.016,5.177,5.4,7.273a4.293,4.293,0,0,0,2.7,7.211,4.324,4.324,0,0,0-.05.657,4.3,4.3,0,0,0,4.3,4.3h.046c0,.029,0,.058,0,.088a4.3,4.3,0,0,0,4.3,4.3,4.384,4.384,0,0,0,.671-.053A4.3,4.3,0,0,0,31.1,147.54l.657-.657.276.222a4.294,4.294,0,0,0,7.281-3.155,4.289,4.289,0,0,0,4.361-4.359,4.293,4.293,0,0,0,4.361-4.363,4.294,4.294,0,0,0,3.67-6.634l3.941-8.253,5.925-5.1a1.216,1.216,0,0,0,.17-1.663Zm-48.79-11.13,4.912,3.123L7.183,118.59,2.9,114.905Zm.693,27.6,1.482-1.482c.045-.045.092-.088.14-.127a1.861,1.861,0,0,1,1.013-.411h.032c.053,0,.106-.007.159-.007a1.854,1.854,0,0,1,1.33.584,1.911,1.911,0,0,1-.082,2.645l-1.438,1.438a1.865,1.865,0,1,1-2.637-2.638Zm3.814,7.566a1.864,1.864,0,0,1,0-2.637l2.875-2.875a1.885,1.885,0,0,1,2.12-.366,1.859,1.859,0,0,1,1.027,1.926,1.968,1.968,0,0,1-.555,1.123L20.1,137.616a1.865,1.865,0,0,1-2.638,0ZM21.8,142a1.864,1.864,0,0,1,0-2.637l2.874-2.875a1.886,1.886,0,0,1,2.254-.3,1.856,1.856,0,0,1,.89,1.885,1.97,1.97,0,0,1-.552,1.094L24.441,142a1.865,1.865,0,0,1-2.638,0Zm4.944,3.822a1.867,1.867,0,0,1,0-2.637L28.23,141.7c.045-.045.092-.087.14-.127l0,0a1.859,1.859,0,0,1,.827-.384l.021,0c.052-.009.105-.017.158-.022l.064,0c.044,0,.087-.005.131,0a1.853,1.853,0,0,1,1.33.584,1.68,1.68,0,0,1,.12.141,1.925,1.925,0,0,1-.21,2.511l-1.43,1.43a1.867,1.867,0,0,1-2.637,0Zm22.679-13.568a1.866,1.866,0,0,1-2.637,0,1.106,1.106,0,0,0-.083-.074l-7.817-7.9a1.216,1.216,0,0,0-1.728,1.71l7.9,7.984,0,0a1.865,1.865,0,1,1-2.638,2.638l-5.286-5.341a1.216,1.216,0,1,0-1.728,1.71l5.205,5.259a1.153,1.153,0,0,0,.085.1,1.865,1.865,0,1,1-2.638,2.637l-2.885-2.915a1.216,1.216,0,0,0-1.728,1.71l2.8,2.833a1.084,1.084,0,0,0,.086.1,1.865,1.865,0,0,1-2.637,2.638,2.689,2.689,0,0,0-.276-.22c-.079-.061-.1-.1-.061-.2s.1-.186.14-.285.08-.223.115-.336a4.383,4.383,0,0,0,.158-1.87,4.253,4.253,0,0,0-3.624-3.66,4.336,4.336,0,0,0-1.041-3.912,4.265,4.265,0,0,0-3.062-1.344h-.128a4.255,4.255,0,0,0-4.212-4.383,4.372,4.372,0,0,0-1.037.11,4.255,4.255,0,0,0-4.169-3.648,4.306,4.306,0,0,0-2.935,1.1l-4.7-6.332,11.243-13.7,3.583.98-4.68,8.258a4.3,4.3,0,0,0,1.62,5.856q.094.053.189.1l.015.007a4.324,4.324,0,0,0,.516.216,4.3,4.3,0,0,0,5.137-1.944l3.041-5.366,5.43.385,14.459,14.458a1.868,1.868,0,0,1,0,2.638Zm.5-5.573L36.367,113.117a1.077,1.077,0,0,0-.08-.074,1.217,1.217,0,0,0-.693-.279l-6.648-.472a1.236,1.236,0,0,0-1.144.614l-3.419,6.034a1.865,1.865,0,1,1-3.245-1.839l4.564-8.055,1.85-.532.036-.012,6.9-1.993h8.34l10.412,13.236Zm4.9-8.845-9.629-12.247,4.914-3.125,9,11.687Zm0,0" transform="translate(0 -87.122)" fill="#e63d21"/><path d="M301.361,39.607a1.212,1.212,0,0,0,.86-.356l8.3-8.3a1.216,1.216,0,0,0-1.719-1.719l-8.3,8.3a1.216,1.216,0,0,0,.859,2.076Zm0,0" transform="translate(-263.8 -24.935)" fill="#e63d21"/><path d="M131.856,39.251a1.216,1.216,0,0,0,1.719-1.719l-8.3-8.3a1.216,1.216,0,1,0-1.719,1.719Zm0,0" transform="translate(-108.278 -24.936)" fill="#e63d21"/><path d="M247.177,50a1.216,1.216,0,0,0,1.216-1.216V41.915a1.216,1.216,0,1,0-2.431,0v6.873A1.216,1.216,0,0,0,247.177,50Zm0,0" transform="translate(-216.177 -35.331)" fill="#e63d21"/><path d="M246.077,2.177A1.215,1.215,0,1,0,247.938.748a1.215,1.215,0,0,0-1.862,1.429Zm0,0" transform="translate(-216.199 0)" fill="#e63d21"/></g></svg>