<svg xmlns="http://www.w3.org/2000/svg" width="62" height="61.295" viewBox="0 0 62 61.295"><g transform="translate(0 -2.909)"><g transform="translate(0 40.25)"><path d="M9.864,311.273a9.864,9.864,0,1,0,9.864,9.864A9.864,9.864,0,0,0,9.864,311.273Zm0,17.614a7.75,7.75,0,1,1,7.75-7.75A7.759,7.759,0,0,1,9.864,328.887Z" transform="translate(0 -311.273)" fill="#e63d21"/></g><g transform="translate(21.136 44.477)"><g transform="translate(0 0)"><path d="M184.41,346.181a9.864,9.864,0,1,0,9.864,9.864A9.864,9.864,0,0,0,184.41,346.181Zm0,17.614a7.75,7.75,0,1,1,7.75-7.75A7.759,7.759,0,0,1,184.41,363.795Z" transform="translate(-174.546 -346.181)" fill="#e63d21"/></g></g><g transform="translate(14.091 2.909)"><path d="M133.272,2.909a16.909,16.909,0,1,0,16.909,16.909A16.909,16.909,0,0,0,133.272,2.909Zm0,31.7a14.8,14.8,0,1,1,14.8-14.8A14.812,14.812,0,0,1,133.272,34.614Z" transform="translate(-116.363 -2.909)" fill="#e63d21"/></g><g transform="translate(42.273 40.25)"><path d="M358.954,311.273a9.864,9.864,0,1,0,9.864,9.864A9.864,9.864,0,0,0,358.954,311.273Zm0,17.614a7.75,7.75,0,1,1,7.75-7.75A7.759,7.759,0,0,1,358.954,328.887Z" transform="translate(-349.09 -311.273)" fill="#e63d21"/></g><g transform="translate(21.525 8.741)"><path d="M190.977,61.14a5.734,5.734,0,1,0-7.491,0,8.966,8.966,0,0,0-5.729,8.407,1.056,1.056,0,0,0,1.058,1.057H195.65a1.056,1.056,0,0,0,1.057-1.057A8.966,8.966,0,0,0,190.977,61.14Zm-6.305-6.894a3.619,3.619,0,1,1-1.06,2.559A3.6,3.6,0,0,1,184.672,54.246ZM179.961,68.49a6.738,6.738,0,0,1,2.066-3.8,7.36,7.36,0,0,1,10.409,0,6.738,6.738,0,0,1,2.067,3.8Z" transform="translate(-177.757 -51.072)" fill="#e63d21"/></g><g transform="translate(29.985 41.314)"><circle cx="1.057" cy="1.057" r="1.057" fill="#e63d21"/></g><g transform="translate(29.985 37.791)"><circle cx="1.057" cy="1.057" r="1.057" fill="#e63d21"/></g><g transform="translate(44.721 39.564)"><circle cx="1.057" cy="1.057" r="1.057" fill="#e63d21"/></g><g transform="translate(42.456 36.865)"><circle cx="1.057" cy="1.057" r="1.057" fill="#e63d21"/></g><g transform="translate(40.193 34.167)"><circle cx="1.057" cy="1.057" r="1.057" fill="#e63d21"/></g><g transform="translate(15.241 39.645)"><circle cx="1.057" cy="1.057" r="1.057" fill="#e63d21"/></g><g transform="translate(17.505 36.947)"><circle cx="1.057" cy="1.057" r="1.057" fill="#e63d21"/></g><g transform="translate(19.77 34.248)"><circle cx="1.057" cy="1.057" r="1.057" fill="#e63d21"/></g><g transform="translate(47.044 44.456)"><path d="M398.609,353.922a4.592,4.592,0,0,0-1.909-2.374c-.117-.075-.247-.134-.37-.2a3.385,3.385,0,1,0-5.5,0c-.124.067-.253.126-.37.2a4.6,4.6,0,0,0-1.91,2.374,1.057,1.057,0,0,0,2,.674,2.491,2.491,0,0,1,1.048-1.27,3.809,3.809,0,0,1,3.958,0,2.486,2.486,0,0,1,1.048,1.27,1.057,1.057,0,1,0,2-.674Zm-5.03-3.264a1.271,1.271,0,1,1,1.271-1.271A1.274,1.274,0,0,1,393.579,350.658Z" transform="translate(-388.492 -346.003)" fill="#e63d21"/></g><g transform="translate(25.93 48.683)"><path d="M224.246,388.831a4.59,4.59,0,0,0-1.909-2.374c-.118-.075-.247-.134-.371-.2a3.384,3.384,0,1,0-5.5,0c-.124.067-.253.126-.37.2a4.6,4.6,0,0,0-1.91,2.374,1.057,1.057,0,1,0,2,.674,2.491,2.491,0,0,1,1.048-1.27,3.809,3.809,0,0,1,3.958,0,2.484,2.484,0,0,1,1.048,1.27,1.057,1.057,0,1,0,2-.674Zm-5.03-3.264a1.271,1.271,0,1,1,1.271-1.271A1.274,1.274,0,0,1,219.216,385.567Z" transform="translate(-214.129 -380.912)" fill="#e63d21"/></g><g transform="translate(4.793 44.456)"><path d="M49.7,353.922a4.591,4.591,0,0,0-1.909-2.374c-.118-.075-.247-.134-.371-.2a3.384,3.384,0,1,0-5.5,0c-.124.067-.253.126-.37.2a4.6,4.6,0,0,0-1.91,2.374,1.057,1.057,0,0,0,2,.674,2.491,2.491,0,0,1,1.048-1.27,3.809,3.809,0,0,1,3.958,0A2.486,2.486,0,0,1,47.7,354.6a1.057,1.057,0,1,0,2-.674Zm-5.03-3.264a1.271,1.271,0,1,1,1.271-1.271A1.274,1.274,0,0,1,44.671,350.658Z" transform="translate(-39.584 -346.003)" fill="#e63d21"/></g></g></svg>